<svg width="40" height="40" viewBox="0 0 40 40" fill="none" xmlns="http://www.w3.org/2000/svg">
<path d="M31.3333 31.5C32.4384 31.5 33.4982 31.939 34.2796 32.7204C35.061 33.5018 35.5 34.5616 35.5 35.6667C35.5 36.7717 35.061 37.8315 34.2796 38.6129C33.4982 39.3943 32.4384 39.8333 31.3333 39.8333C30.2282 39.8333 29.1684 39.3943 28.387 38.6129C27.6056 37.8315 27.1666 36.7717 27.1666 35.6667C27.1666 34.5616 27.6056 33.5018 28.387 32.7204C29.1684 31.939 30.2282 31.5 31.3333 31.5ZM31.3333 33.5833C30.7808 33.5833 30.2509 33.8028 29.8602 34.1935C29.4695 34.5842 29.25 35.1141 29.25 35.6667C29.25 36.2192 29.4695 36.7491 29.8602 37.1398C30.2509 37.5305 30.7808 37.75 31.3333 37.75C31.8858 37.75 32.4158 37.5305 32.8065 37.1398C33.1972 36.7491 33.4166 36.2192 33.4166 35.6667C33.4166 35.1141 33.1972 34.5842 32.8065 34.1935C32.4158 33.8028 31.8858 33.5833 31.3333 33.5833ZM12.5833 31.5C13.6884 31.5 14.7482 31.939 15.5296 32.7204C16.311 33.5018 16.75 34.5616 16.75 35.6667C16.75 36.7717 16.311 37.8315 15.5296 38.6129C14.7482 39.3943 13.6884 39.8333 12.5833 39.8333C11.4782 39.8333 10.4184 39.3943 9.63703 38.6129C8.85563 37.8315 8.41665 36.7717 8.41665 35.6667C8.41665 34.5616 8.85563 33.5018 9.63703 32.7204C10.4184 31.939 11.4782 31.5 12.5833 31.5ZM12.5833 33.5833C12.0308 33.5833 11.5009 33.8028 11.1102 34.1935C10.7195 34.5842 10.5 35.1141 10.5 35.6667C10.5 36.2192 10.7195 36.7491 11.1102 37.1398C11.5009 37.5305 12.0308 37.75 12.5833 37.75C13.1358 37.75 13.6658 37.5305 14.0565 37.1398C14.4472 36.7491 14.6666 36.2192 14.6666 35.6667C14.6666 35.1141 14.4472 34.5842 14.0565 34.1935C13.6658 33.8028 13.1358 33.5833 12.5833 33.5833ZM35.5 6.5H6.89581L12.2083 19H29.25C29.9375 19 30.5416 18.6667 30.9166 18.1667L37.1666 9.83333C37.4375 9.47917 37.5833 9.04167 37.5833 8.58333C37.5833 8.0308 37.3638 7.5009 36.9731 7.11019C36.5824 6.71949 36.0525 6.5 35.5 6.5ZM29.25 21.0833H12.3125L10.7083 24.3333L10.5 25.25C10.5 25.8025 10.7195 26.3324 11.1102 26.7231C11.5009 27.1138 12.0308 27.3333 12.5833 27.3333H35.5V29.4167H12.5833C11.4782 29.4167 10.4184 28.9777 9.63703 28.1963C8.85563 27.4149 8.41665 26.3551 8.41665 25.25C8.41603 24.5431 8.59526 23.8477 8.93748 23.2292L10.4375 20.1667L2.87498 2.33333H0.083313V0.25H4.24998L6.02081 4.41667H35.5C36.605 4.41667 37.6649 4.85565 38.4463 5.63705C39.2277 6.41846 39.6666 7.47826 39.6666 8.58333C39.6666 9.625 39.3125 10.5 38.7291 11.2083L32.6666 19.3125C31.9166 20.375 30.6666 21.0833 29.25 21.0833Z" fill="black"/>
</svg>
