<svg width="32" height="32" viewBox="0 0 32 32" fill="none" xmlns="http://www.w3.org/2000/svg">
<path d="M15.9584 19.1667C24.5834 19.1667 31.5834 22.4375 31.5834 26.4583V31.6667H0.333374V26.4583C0.333374 22.4375 7.33337 19.1667 15.9584 19.1667ZM29.5 26.4583C29.5 23.5833 23.4375 21.25 15.9584 21.25C8.47921 21.25 2.41671 23.5833 2.41671 26.4583V29.5833H29.5V26.4583ZM15.9584 0.416656C17.8922 0.416656 19.7469 1.18488 21.1144 2.55234C22.4818 3.91979 23.25 5.77445 23.25 7.70832C23.25 9.64219 22.4818 11.4969 21.1144 12.8643C19.7469 14.2318 17.8922 15 15.9584 15C14.0245 15 12.1698 14.2318 10.8024 12.8643C9.43493 11.4969 8.66671 9.64219 8.66671 7.70832C8.66671 5.77445 9.43493 3.91979 10.8024 2.55234C12.1698 1.18488 14.0245 0.416656 15.9584 0.416656ZM15.9584 2.49999C14.577 2.49999 13.2523 3.04872 12.2755 4.02548C11.2988 5.00223 10.75 6.32699 10.75 7.70832C10.75 9.08966 11.2988 10.4144 12.2755 11.3912C13.2523 12.3679 14.577 12.9167 15.9584 12.9167C17.3397 12.9167 18.6645 12.3679 19.6412 11.3912C20.618 10.4144 21.1667 9.08966 21.1667 7.70832C21.1667 6.32699 20.618 5.00223 19.6412 4.02548C18.6645 3.04872 17.3397 2.49999 15.9584 2.49999Z" fill="black"/>
</svg>
