<svg width="36" height="36" viewBox="0 0 36 36" fill="none" xmlns="http://www.w3.org/2000/svg">
<path d="M13.7917 0.333344C17.3831 0.333344 20.8275 1.76005 23.3671 4.29961C25.9066 6.83916 27.3333 10.2835 27.3333 13.875C27.3333 17.25 26.1042 20.3333 24.0625 22.6875L35.8333 34.4583L34.3542 35.9375L22.5833 24.1667C20.136 26.267 17.0167 27.4201 13.7917 27.4167C10.2002 27.4167 6.75582 25.99 4.21626 23.4504C1.67671 20.9109 0.25 17.4665 0.25 13.875C0.25 10.2835 1.67671 6.83916 4.21626 4.29961C6.75582 1.76005 10.2002 0.333344 13.7917 0.333344ZM13.7917 2.41668C10.7527 2.41668 7.83826 3.62389 5.6894 5.77275C3.54055 7.9216 2.33333 10.8361 2.33333 13.875C2.33333 16.9139 3.54055 19.8284 5.6894 21.9773C7.83826 24.1261 10.7527 25.3333 13.7917 25.3333C15.2964 25.3333 16.7864 25.037 18.1766 24.4611C19.5668 23.8853 20.8299 23.0413 21.8939 21.9773C22.9579 20.9133 23.8019 19.6501 24.3778 18.2599C24.9536 16.8697 25.25 15.3797 25.25 13.875C25.25 12.3703 24.9536 10.8803 24.3778 9.4901C23.8019 8.09991 22.9579 6.83675 21.8939 5.77275C20.8299 4.70874 19.5668 3.86473 18.1766 3.28889C16.7864 2.71306 15.2964 2.41668 13.7917 2.41668Z" fill="black"/>
</svg>
